<svg width="215" height="83" viewBox="0 0 215 83" fill="none" xmlns="http://www.w3.org/2000/svg">
<path d="M99.4907 38H92.4293V12.9973H95.2453C95.9991 12.9973 97.1369 12.9689 98.6587 12.912C100.18 12.8409 101.432 12.8053 102.413 12.8053C105.172 12.8053 107.263 13.5378 108.685 15.0027C110.108 16.4676 110.819 18.6649 110.819 21.5947C110.819 23.3582 110.584 24.9653 110.115 26.416C109.66 27.8524 109.041 29.0329 108.259 29.9573C107.476 30.8818 106.588 31.5929 105.592 32.0907C104.596 32.5884 103.544 32.8373 102.435 32.8373C102.292 32.8373 102.143 32.8373 101.987 32.8373C101.844 32.8373 101.709 32.8373 101.581 32.8373C101.468 32.8231 101.325 32.816 101.155 32.816C100.998 32.8018 100.87 32.7947 100.771 32.7947C100.685 32.7804 100.557 32.7733 100.387 32.7733C100.23 32.7591 100.124 32.752 100.067 32.752C100.01 32.752 99.9031 32.7449 99.7467 32.7307C99.5902 32.7164 99.5049 32.7093 99.4907 32.7093V38ZM103.821 20.656C103.821 19.6036 103.537 18.7502 102.968 18.096C102.399 17.4418 101.581 17.1147 100.515 17.1147H99.4907V28.208H100.28C101.404 28.208 102.271 27.8311 102.883 27.0773C103.508 26.3236 103.821 25.2356 103.821 23.8133V20.656ZM119.448 29.68V38H112.365V12.9973H115.181C115.864 12.9973 116.881 12.9689 118.232 12.912C119.583 12.8409 120.7 12.8053 121.581 12.8053C124.653 12.8053 126.943 13.4809 128.451 14.832C129.972 16.1831 130.733 18.2524 130.733 21.04C130.733 22.6898 130.371 24.1547 129.645 25.4347C128.934 26.7147 127.988 27.7316 126.808 28.4853C127.448 28.6418 127.996 29.0044 128.451 29.5733C128.92 30.1422 129.283 30.8178 129.539 31.6C129.795 32.368 130.015 33.1502 130.2 33.9467C130.399 34.7289 130.62 35.504 130.861 36.272C131.117 37.04 131.395 37.616 131.693 38H123.821C123.665 37.8009 123.544 37.2462 123.459 36.336C123.373 35.4116 123.252 34.3093 123.096 33.0293C122.954 31.7351 122.748 30.6542 122.477 29.7867C122.449 29.7867 122.413 29.7867 122.371 29.7867C122.1 29.7867 121.809 29.7867 121.496 29.7867C121.197 29.7724 120.934 29.7582 120.707 29.744C120.479 29.7298 120.237 29.7156 119.981 29.7013C119.74 29.6871 119.562 29.68 119.448 29.68ZM119.448 25.712H120.131C120.486 25.712 120.785 25.6978 121.027 25.6693C121.268 25.6409 121.532 25.5911 121.816 25.52C122.115 25.4347 122.356 25.3067 122.541 25.136C122.74 24.9653 122.925 24.7449 123.096 24.4747C123.267 24.2044 123.395 23.856 123.48 23.4293C123.565 23.0027 123.608 22.5049 123.608 21.936V20.2507C123.608 19.0133 123.281 18.1529 122.627 17.6693C121.987 17.1716 121.062 16.9227 119.853 16.9227H119.448V25.712ZM140.286 28.336C140.286 30.6969 140.464 32.3396 140.82 33.264C141.189 34.1884 141.829 34.6507 142.74 34.6507C143.408 34.6507 143.913 34.4871 144.254 34.16C144.596 33.8187 144.852 33.1289 145.022 32.0907C145.207 31.0382 145.3 29.4667 145.3 27.376V22.2347C145.3 20.2009 145.101 18.6862 144.702 17.6907C144.304 16.6951 143.65 16.1973 142.74 16.1973C141.829 16.1973 141.189 16.688 140.82 17.6693C140.464 18.6364 140.286 20.4071 140.286 22.9813V28.336ZM142.292 38.448C141.111 38.448 140.045 38.3413 139.092 38.128C138.153 37.9147 137.342 37.616 136.66 37.232C135.977 36.848 135.38 36.3573 134.868 35.76C134.37 35.1627 133.965 34.5227 133.652 33.84C133.353 33.1573 133.111 32.3609 132.926 31.4507C132.741 30.5262 132.613 29.6089 132.542 28.6987C132.471 27.7742 132.436 26.736 132.436 25.584C132.436 23.8773 132.521 22.3911 132.692 21.1253C132.877 19.8596 133.211 18.672 133.694 17.5627C134.178 16.4391 134.818 15.5289 135.614 14.832C136.425 14.1351 137.463 13.5876 138.729 13.1893C140.009 12.7911 141.517 12.592 143.252 12.592C144.446 12.592 145.52 12.7058 146.473 12.9333C147.426 13.1467 148.244 13.4453 148.926 13.8293C149.609 14.2133 150.199 14.7111 150.697 15.3227C151.209 15.9342 151.614 16.5884 151.913 17.2853C152.226 17.968 152.475 18.7716 152.66 19.696C152.845 20.6204 152.973 21.5378 153.044 22.448C153.115 23.3582 153.15 24.3893 153.15 25.5413C153.15 27.248 153.058 28.7342 152.873 30C152.688 31.2658 152.354 32.4533 151.87 33.5627C151.387 34.6578 150.74 35.5538 149.929 36.2507C149.118 36.9333 148.073 37.4738 146.793 37.872C145.527 38.256 144.027 38.448 142.292 38.448ZM160.786 38H154.364L156.348 12.9973H166.353L168.231 21.3813L169.084 25.6267L169.895 21.4027L171.559 12.9973H180.476L182.311 38H175.676L174.588 23.3013L174.332 17.8827L171.068 35.504H165.5L161.575 17.8827L161.447 23.3013L160.786 38ZM191.411 28.336C191.411 30.6969 191.589 32.3396 191.945 33.264C192.314 34.1884 192.954 34.6507 193.865 34.6507C194.533 34.6507 195.038 34.4871 195.379 34.16C195.721 33.8187 195.977 33.1289 196.147 32.0907C196.332 31.0382 196.425 29.4667 196.425 27.376V22.2347C196.425 20.2009 196.226 18.6862 195.827 17.6907C195.429 16.6951 194.775 16.1973 193.865 16.1973C192.954 16.1973 192.314 16.688 191.945 17.6693C191.589 18.6364 191.411 20.4071 191.411 22.9813V28.336ZM193.417 38.448C192.236 38.448 191.17 38.3413 190.217 38.128C189.278 37.9147 188.467 37.616 187.785 37.232C187.102 36.848 186.505 36.3573 185.993 35.76C185.495 35.1627 185.09 34.5227 184.777 33.84C184.478 33.1573 184.236 32.3609 184.051 31.4507C183.866 30.5262 183.738 29.6089 183.667 28.6987C183.596 27.7742 183.561 26.736 183.561 25.584C183.561 23.8773 183.646 22.3911 183.817 21.1253C184.002 19.8596 184.336 18.672 184.819 17.5627C185.303 16.4391 185.943 15.5289 186.739 14.832C187.55 14.1351 188.588 13.5876 189.854 13.1893C191.134 12.7911 192.642 12.592 194.377 12.592C195.571 12.592 196.645 12.7058 197.598 12.9333C198.551 13.1467 199.369 13.4453 200.051 13.8293C200.734 14.2133 201.324 14.7111 201.822 15.3227C202.334 15.9342 202.739 16.5884 203.038 17.2853C203.351 17.968 203.6 18.7716 203.785 19.696C203.97 20.6204 204.098 21.5378 204.169 22.448C204.24 23.3582 204.275 24.3893 204.275 25.5413C204.275 27.248 204.183 28.7342 203.998 30C203.813 31.2658 203.479 32.4533 202.995 33.5627C202.512 34.6578 201.865 35.5538 201.054 36.2507C200.243 36.9333 199.198 37.4738 197.918 37.872C196.652 38.256 195.152 38.448 193.417 38.448ZM99.448 64.68V73H92.3653V47.9973H95.1813C95.864 47.9973 96.8809 47.9689 98.232 47.912C99.5831 47.8409 100.7 47.8053 101.581 47.8053C104.653 47.8053 106.943 48.4809 108.451 49.832C109.972 51.1831 110.733 53.2524 110.733 56.04C110.733 57.6898 110.371 59.1547 109.645 60.4347C108.934 61.7147 107.988 62.7316 106.808 63.4853C107.448 63.6418 107.996 64.0044 108.451 64.5733C108.92 65.1422 109.283 65.8178 109.539 66.6C109.795 67.368 110.015 68.1502 110.2 68.9467C110.399 69.7289 110.62 70.504 110.861 71.272C111.117 72.04 111.395 72.616 111.693 73H103.821C103.665 72.8009 103.544 72.2462 103.459 71.336C103.373 70.4116 103.252 69.3093 103.096 68.0293C102.954 66.7351 102.748 65.6542 102.477 64.7867C102.449 64.7867 102.413 64.7867 102.371 64.7867C102.1 64.7867 101.809 64.7867 101.496 64.7867C101.197 64.7724 100.934 64.7582 100.707 64.744C100.479 64.7298 100.237 64.7156 99.9813 64.7013C99.7396 64.6871 99.5618 64.68 99.448 64.68ZM99.448 60.712H100.131C100.486 60.712 100.785 60.6978 101.027 60.6693C101.268 60.6409 101.532 60.5911 101.816 60.52C102.115 60.4347 102.356 60.3067 102.541 60.136C102.74 59.9653 102.925 59.7449 103.096 59.4747C103.267 59.2044 103.395 58.856 103.48 58.4293C103.565 58.0027 103.608 57.5049 103.608 56.936V55.2507C103.608 54.0133 103.281 53.1529 102.627 52.6693C101.987 52.1716 101.062 51.9227 99.8533 51.9227H99.448V60.712ZM125.321 73L124.361 69.0107H118.302L117.492 73H111.22L117.726 49.7253L117.214 47.9973H126.025L133.15 73H125.321ZM121.054 55.336L119.177 64.6587H123.316L121.054 55.336ZM141.053 73H133.992V47.9973H136.808C137.562 47.9973 138.699 47.9689 140.221 47.912C141.743 47.8409 142.994 47.8053 143.976 47.8053C146.735 47.8053 148.826 48.5378 150.248 50.0027C151.67 51.4676 152.381 53.6649 152.381 56.5947C152.381 58.3582 152.146 59.9653 151.677 61.416C151.222 62.8524 150.603 64.0329 149.821 64.9573C149.039 65.8818 148.15 66.5929 147.155 67.0907C146.159 67.5884 145.106 67.8373 143.997 67.8373C143.855 67.8373 143.706 67.8373 143.549 67.8373C143.407 67.8373 143.272 67.8373 143.144 67.8373C143.03 67.8231 142.888 67.816 142.717 67.816C142.561 67.8018 142.433 67.7947 142.333 67.7947C142.248 67.7804 142.12 67.7733 141.949 67.7733C141.793 67.7591 141.686 67.752 141.629 67.752C141.572 67.752 141.466 67.7449 141.309 67.7307C141.153 67.7164 141.067 67.7093 141.053 67.7093V73ZM145.384 55.656C145.384 54.6036 145.099 53.7502 144.53 53.096C143.962 52.4418 143.144 52.1147 142.077 52.1147H141.053V63.208H141.842C142.966 63.208 143.834 62.8311 144.445 62.0773C145.071 61.3236 145.384 60.2356 145.384 58.8133V55.656ZM161.224 63.336C161.224 65.6969 161.402 67.3396 161.757 68.264C162.127 69.1884 162.767 69.6507 163.677 69.6507C164.346 69.6507 164.851 69.4871 165.192 69.16C165.533 68.8187 165.789 68.1289 165.96 67.0907C166.145 66.0382 166.237 64.4667 166.237 62.376V57.2347C166.237 55.2009 166.038 53.6862 165.64 52.6907C165.242 51.6951 164.587 51.1973 163.677 51.1973C162.767 51.1973 162.127 51.688 161.757 52.6693C161.402 53.6364 161.224 55.4071 161.224 57.9813V63.336ZM163.229 73.448C162.049 73.448 160.982 73.3413 160.029 73.128C159.091 72.9147 158.28 72.616 157.597 72.232C156.915 71.848 156.317 71.3573 155.805 70.76C155.307 70.1627 154.902 69.5227 154.589 68.84C154.291 68.1573 154.049 67.3609 153.864 66.4507C153.679 65.5262 153.551 64.6089 153.48 63.6987C153.409 62.7742 153.373 61.736 153.373 60.584C153.373 58.8773 153.458 57.3911 153.629 56.1253C153.814 54.8596 154.148 53.672 154.632 52.5627C155.115 51.4391 155.755 50.5289 156.552 49.832C157.362 49.1351 158.401 48.5876 159.667 48.1893C160.947 47.7911 162.454 47.592 164.189 47.592C165.384 47.592 166.458 47.7058 167.41 47.9333C168.363 48.1467 169.181 48.4453 169.864 48.8293C170.546 49.2133 171.137 49.7111 171.635 50.3227C172.147 50.9342 172.552 51.5884 172.851 52.2853C173.163 52.968 173.412 53.7716 173.597 54.696C173.782 55.6204 173.91 56.5378 173.981 57.448C174.052 58.3582 174.088 59.3893 174.088 60.5413C174.088 62.248 173.995 63.7342 173.81 65C173.626 66.2658 173.291 67.4533 172.808 68.5627C172.324 69.6578 171.677 70.5538 170.866 71.2507C170.056 71.9333 169.01 72.4738 167.731 72.872C166.465 73.256 164.964 73.448 163.229 73.448ZM183.75 73.448C182.655 73.448 181.631 73.3484 180.678 73.1493C179.739 72.9644 178.95 72.7156 178.31 72.4027C177.67 72.0898 177.143 71.7911 176.731 71.5067C176.333 71.2222 175.999 70.9378 175.728 70.6533L176.262 65.4693C176.845 66.2516 177.627 66.9342 178.608 67.5173C179.59 68.0862 180.649 68.3707 181.787 68.3707C182.925 68.3707 183.743 68.2498 184.24 68.008C184.752 67.7662 185.008 67.3253 185.008 66.6853C185.008 66.0027 184.717 65.4196 184.134 64.936C183.565 64.4524 182.576 63.8693 181.168 63.1867C180.656 62.9307 180.223 62.7031 179.867 62.504C179.511 62.2907 179.035 61.9493 178.438 61.48C177.855 60.9964 177.378 60.4987 177.008 59.9867C176.639 59.4604 176.311 58.792 176.027 57.9813C175.743 57.1564 175.6 56.2747 175.6 55.336C175.6 50.2587 178.466 47.72 184.198 47.72C185.108 47.72 185.961 47.8196 186.758 48.0187C187.568 48.2036 188.201 48.4098 188.656 48.6373C189.111 48.8649 189.524 49.1351 189.894 49.448C190.278 49.7467 190.519 49.96 190.619 50.088C190.719 50.2018 190.79 50.2942 190.832 50.3653L189.766 54.4827C189.211 53.8284 188.514 53.3449 187.675 53.032C186.85 52.7049 186.061 52.5413 185.307 52.5413C183.487 52.5413 182.576 53.1102 182.576 54.248C182.576 54.5467 182.633 54.8169 182.747 55.0587C182.861 55.3004 183.046 55.5209 183.302 55.72C183.558 55.9191 183.792 56.0898 184.006 56.232C184.233 56.3742 184.539 56.552 184.923 56.7653C185.321 56.9644 185.62 57.128 185.819 57.256C187.895 58.1378 189.417 59.1831 190.384 60.392C191.366 61.6009 191.856 63.0729 191.856 64.808C191.856 67.624 191.159 69.7716 189.766 71.2507C188.386 72.7156 186.381 73.448 183.75 73.448ZM206.384 73L205.424 69.0107H199.365L198.554 73H192.282L198.789 49.7253L198.277 47.9973H207.087L214.213 73H206.384ZM202.117 55.336L200.24 64.6587H204.378L202.117 55.336Z" fill="#A78BFA"/>
<circle cx="36.8372" cy="41.8982" r="36.2748" fill="#A78BFA"/>
<path fill-rule="evenodd" clip-rule="evenodd" d="M13.3643 5.50048C14.6432 4.54466 15.2528 4.65101 16.2285 5.50048C21.8386 9.76085 24.971 12.6383 30.5469 18.229C39.0094 16.2051 43.6012 16.4025 51.5488 18.8647C54.0245 19.9365 55.1955 20.7345 56.0029 23.3198C57.1513 27.273 58.3903 28.7908 62.6855 29.0474H66.8223C68.3572 29.1081 68.8428 29.6453 68.7314 31.9116C68.7305 31.9822 68.5969 41.1584 61.4121 46.23C57.9122 48.4572 57.9126 48.7761 56.958 52.9126C56.0033 57.0491 52.0887 58.9871 46.7754 57.6851C50.1158 58.8577 51.9348 58.9355 55.0488 57.6851C59.8559 60.8193 62.6231 63.2127 63.6953 66.2768C63.0387 66.9999 62.353 67.6958 61.6406 68.3638C60.7196 67.236 59.6814 66.4526 58.2305 65.6401C58.9202 67.3812 59.3348 68.8605 59.5146 70.2085C58.4464 71.0654 57.3293 71.8636 56.167 72.5972C55.8625 72.0138 55.4947 71.4004 55.0488 70.7319C55.0488 71.6818 55.0054 72.5489 54.9287 73.3433C49.6037 76.4142 43.4267 78.1732 36.8379 78.1733C28.4514 78.1733 20.7306 75.3255 14.5869 70.5464C13.9338 69.928 13.2876 69.2836 12.6533 68.6089C14.1282 65.5927 16.5467 60.5493 20.0469 58.6401C16.5467 58.3219 14.3086 58.7081 10.8184 60.2309C11.1365 58.9582 12.3597 57.1922 14.6367 56.0942C8.51599 55.507 5.78415 54.7255 2.5459 52.2759C5.507 50.9713 6.77907 50.1189 8.5918 48.4575C4.61218 48.6205 2.78362 48.0453 0 46.23C7.21737 43.1432 9.95757 40.6931 11.4551 34.4565C6.36407 28.0924 7.00033 14.7282 13.3643 5.50048ZM43.9111 0.409662C44.5377 -0.127343 44.8211 -0.145688 45.1846 0.409662C48.173 5.63861 49.6116 9.08314 51.2305 17.2739C46.1907 15.0761 42.2697 14.96 34.3652 15.6831C36.9475 8.58489 40.0929 3.27354 43.9111 0.409662Z" fill="#EE6C02"/>
<path fill-rule="evenodd" clip-rule="evenodd" d="M64.5863 32.516C66.1834 32.0796 67.2324 32.0302 67.9603 32.4408C68.2422 32.6 68.4744 32.8281 68.6713 33.1263C68.6601 33.2246 68.6472 33.3286 68.6332 33.4369C68.5103 34.3829 68.2716 35.6978 67.807 37.1712C66.8776 40.1185 65.0444 43.7054 61.431 46.2562H61.4301C59.6793 47.3703 58.8096 48.0045 58.2572 48.8724C57.7042 49.7416 57.4665 50.8488 56.9886 52.9193C56.5093 54.9963 55.286 56.5232 53.515 57.3666C51.8725 58.1486 49.7611 58.3401 47.3392 57.8431C48.7459 58.307 49.8836 58.5533 50.9974 58.5619C52.2532 58.5715 53.482 58.2798 55.0365 57.6556L55.0521 57.6498L55.0658 57.6586C58.8187 60.1054 61.3364 62.1033 62.7719 64.3246C63.172 64.9438 63.4849 65.5813 63.7201 66.2494C63.0487 66.9902 62.3464 67.702 61.6166 68.3851C61.5554 68.3101 61.4963 68.2345 61.434 68.1625C60.5783 67.1745 59.6049 66.4549 58.2924 65.7132C58.9597 67.4111 59.3645 68.8607 59.5433 70.1849C58.4582 71.0572 57.3224 71.8689 56.14 72.6136C55.8489 72.0564 55.4987 71.4719 55.0785 70.8373C55.0756 71.7383 55.0348 72.5646 54.9623 73.3246C49.6296 76.4074 43.44 78.1731 36.8373 78.1732C36.6589 78.1732 36.4809 78.1709 36.3031 78.1683C35.9676 77.8355 35.6664 77.5064 35.3969 77.1781C33.351 74.6853 33.1033 72.2748 33.0629 69.222C32.212 70.1529 31.6843 71.1031 31.4017 72.4281C31.125 73.7259 31.0825 75.3841 31.1996 77.7357C31.111 77.7219 31.0223 77.7092 30.934 77.6947C29.2277 74.8255 28.4968 72.0063 28.639 69.3607C28.7867 66.617 29.8703 64.0632 31.7631 61.8402C30.9527 61.6073 30.0801 61.7092 28.9144 62.1703C27.7253 62.6408 26.235 63.4824 24.2006 64.7132L24.1263 64.7582L24.1527 64.6761C24.9393 62.2604 25.8919 60.4982 27.4076 58.9457C28.891 57.4264 30.9133 56.109 33.8431 54.5746C33.7538 54.5912 33.6369 54.6131 33.4955 54.638C33.136 54.7015 32.6147 54.7887 31.973 54.8832C30.6897 55.0722 28.9188 55.2911 26.9691 55.4105C25.0193 55.5299 22.8889 55.5502 20.8881 55.3412C18.8878 55.1321 17.0136 54.6932 15.5765 53.8949L15.5082 53.8578L15.5834 53.8363C16.5478 53.5693 17.2605 53.0951 18.0111 52.5267C18.7464 51.9699 19.5202 51.3224 20.601 50.6966C19.533 50.408 18.7516 50.5613 17.5052 50.7171C16.2306 50.8765 14.4776 51.0355 11.4525 50.7171L11.4017 50.7113L11.4281 50.6683C13.7222 46.8916 15.9553 44.4135 18.889 42.6849C21.8223 40.9568 25.4541 39.9791 30.5424 39.1986L30.5482 39.1976C38.821 39.5401 42.7507 39.381 47.3998 37.9271C55.9481 34.15 59.9774 32.7261 64.5863 32.516Z" fill="#F4F9B3"/>
<path d="M15.2938 6.74851C20.7322 11.1387 23.5589 13.7584 27.0741 19.484L27.1337 19.5803C27.726 20.5792 27.4729 21.664 26.6881 22.4298C25.8787 23.2195 24.5043 23.6707 22.9045 23.3508L22.8989 23.3502L22.8946 23.3471C20.6967 22.06 19.2634 20.6424 18.2192 18.6599C17.1889 16.7037 16.5383 14.1989 15.9035 10.731C14.8321 14.4917 14.2863 17.4443 14.4368 20.41C14.5796 23.2222 15.3487 26.0487 16.8929 29.5893L17.2124 30.3071L17.2142 30.3115L17.2148 30.3164C17.2742 30.8602 17.1859 31.2078 16.8724 31.4071C16.7178 31.5052 16.5109 31.5657 16.2478 31.5986C15.9845 31.6314 15.6613 31.6369 15.2727 31.6247H15.2615L15.2528 31.6166C12.0612 28.7442 10.8799 24.3345 11.0858 19.7431C11.2916 15.1515 12.8846 10.3729 15.2472 6.75597L15.2665 6.72676L15.2938 6.74851Z" fill="white"/>
<path d="M43.9412 2.94192C46.2379 8.1259 47.2336 11.2042 48.1965 16.1994C45.6321 15.4556 43.0862 15.2331 39.7735 15.3443C39.8935 13.0654 40.1818 11.2295 40.7635 9.40971C41.3998 7.41894 42.3865 5.44853 43.8846 2.93881L43.9163 2.88599L43.9412 2.94192Z" fill="white"/>
<path d="M55.6849 50.0485C57.382 45.2755 59.5033 44.6391 61.4125 42.0935C55.3667 46.8665 47.0935 47.1847 40.4113 44.0027C39.0218 43.3784 39.4179 42.9157 40.0931 42.0935C38.9816 42.3126 37.8967 43.2282 37.8657 44.9573C38.6225 44.1692 38.984 43.9784 39.4567 44.3209L42.3205 47.8211C45.8107 52.1728 47.7146 53.8317 50.9119 53.8669C53.3529 53.6988 54.4121 52.9123 55.6849 50.0485Z" fill="#012540"/>
<path d="M50.2756 51.9577C48.0482 51.9578 46.7361 50.4669 44.8662 48.4575C47.1845 47.6922 48.4163 47.721 50.2756 50.0485C50.0608 49.3376 49.9205 49.066 49.6392 48.7757C49.2071 48.2594 49.9574 47.8212 50.5938 47.8212C51.2302 47.8212 53.4576 48.7758 53.1394 50.6849C52.503 52.276 50.2756 51.9577 50.2756 51.9577Z" fill="#EE6C02"/>
<path d="M41.366 33.5022C35.9566 32.2294 29.9108 36.0478 29.9108 36.0478C31.6682 33.0411 32.7684 31.9245 35.002 31.2748C37.9595 30.7271 39.5949 31.2329 41.366 33.5022Z" fill="#012642"/>
<path d="M57.276 29.0474C53.9589 29.0545 52.3712 29.5701 49.9574 31.2748C50.2756 29.3656 50.912 28.0928 52.8212 27.4564C54.4122 27.1382 55.7707 27.5715 57.276 29.0474Z" fill="#012642"/>
<path d="M58.867 33.8204C58.5488 32.8658 59.6782 32.1733 62.3672 31.2748C66.1856 30.3202 66.5038 31.2748 66.5038 31.2748C66.5038 31.2748 67.1402 32.242 65.8674 33.8204C64.8154 35.1248 63.7254 35.8911 61.7308 35.7296C60.5736 35.3904 59.1852 34.775 58.867 33.8204Z" fill="#012642"/>
<path d="M30.5472 18.2286C39.0097 16.2047 43.6009 16.4027 51.5484 18.865C54.0242 19.9367 55.1957 20.7344 56.0032 23.3198C57.1516 27.2729 58.3902 28.7908 62.6854 29.0474H66.822C68.3572 29.1081 68.7312 29.6838 68.7312 31.593C68.7311 31.605 68.7312 32.2294 68.7312 33.184L68.0563 32.5793L68.0637 32.5414V32.5389C68.2214 31.9605 68.2359 31.1287 67.7747 30.506C67.3152 29.8857 66.3749 29.4618 64.599 29.7155C62.3682 30.0341 60.6105 29.8753 59.1305 29.0753C57.6507 28.2754 56.4533 26.8371 55.3382 24.6069C54.2257 22.3817 53.2749 21.1953 51.8517 20.4442C50.4255 19.6915 48.5224 19.3743 45.4976 18.8967C40.666 18.1338 34.3694 18.7908 31.825 19.2149L31.8119 19.2167L31.8008 19.2087L30.528 18.2541L30.5143 18.2435L30.5155 18.2267L30.5168 18.1981C30.5269 18.2083 30.5371 18.2184 30.5472 18.2286Z" fill="#FAAB65"/>
</svg>
