<svg width="74" height="79" viewBox="0 0 74 79" fill="none" xmlns="http://www.w3.org/2000/svg">
<circle cx="36.8372" cy="41.8982" r="36.2748" fill="#A78BFA"/>
<path fill-rule="evenodd" clip-rule="evenodd" d="M13.3643 5.50048C14.6432 4.54466 15.2528 4.65101 16.2285 5.50048C21.8386 9.76085 24.971 12.6383 30.5469 18.229C39.0094 16.2051 43.6012 16.4025 51.5488 18.8647C54.0245 19.9365 55.1955 20.7345 56.0029 23.3198C57.1513 27.273 58.3903 28.7908 62.6855 29.0474H66.8223C68.3572 29.1081 68.8428 29.6453 68.7314 31.9116C68.7305 31.9822 68.5969 41.1584 61.4121 46.23C57.9122 48.4572 57.9126 48.7761 56.958 52.9126C56.0033 57.0491 52.0887 58.9871 46.7754 57.6851C50.1158 58.8577 51.9348 58.9355 55.0488 57.6851C59.8559 60.8193 62.6231 63.2127 63.6953 66.2768C63.0387 66.9999 62.353 67.6958 61.6406 68.3638C60.7196 67.236 59.6814 66.4526 58.2305 65.6401C58.9202 67.3812 59.3348 68.8605 59.5146 70.2085C58.4464 71.0654 57.3293 71.8636 56.167 72.5972C55.8625 72.0138 55.4947 71.4004 55.0488 70.7319C55.0488 71.6818 55.0054 72.5489 54.9287 73.3433C49.6037 76.4142 43.4267 78.1732 36.8379 78.1733C28.4514 78.1733 20.7306 75.3255 14.5869 70.5464C13.9338 69.928 13.2876 69.2836 12.6533 68.6089C14.1282 65.5927 16.5467 60.5493 20.0469 58.6401C16.5467 58.3219 14.3086 58.7081 10.8184 60.2309C11.1365 58.9582 12.3597 57.1922 14.6367 56.0942C8.51599 55.507 5.78415 54.7255 2.5459 52.2759C5.507 50.9713 6.77907 50.1189 8.5918 48.4575C4.61218 48.6205 2.78362 48.0453 0 46.23C7.21737 43.1432 9.95757 40.6931 11.4551 34.4565C6.36407 28.0924 7.00033 14.7282 13.3643 5.50048ZM43.9111 0.409662C44.5377 -0.127343 44.8211 -0.145688 45.1846 0.409662C48.173 5.63861 49.6116 9.08314 51.2305 17.2739C46.1907 15.0761 42.2697 14.96 34.3652 15.6831C36.9475 8.58489 40.0929 3.27354 43.9111 0.409662Z" fill="#EE6C02"/>
<path fill-rule="evenodd" clip-rule="evenodd" d="M64.5863 32.516C66.1834 32.0796 67.2324 32.0302 67.9603 32.4408C68.2422 32.6 68.4744 32.8281 68.6713 33.1263C68.6601 33.2246 68.6472 33.3286 68.6332 33.4369C68.5103 34.3829 68.2716 35.6978 67.807 37.1712C66.8776 40.1185 65.0444 43.7054 61.431 46.2562H61.4301C59.6793 47.3703 58.8096 48.0045 58.2572 48.8724C57.7042 49.7416 57.4665 50.8488 56.9886 52.9193C56.5093 54.9963 55.286 56.5232 53.515 57.3666C51.8725 58.1486 49.7611 58.3401 47.3392 57.8431C48.7459 58.307 49.8836 58.5533 50.9974 58.5619C52.2532 58.5715 53.482 58.2798 55.0365 57.6556L55.0521 57.6498L55.0658 57.6586C58.8187 60.1054 61.3364 62.1033 62.7719 64.3246C63.172 64.9438 63.4849 65.5813 63.7201 66.2494C63.0487 66.9902 62.3464 67.702 61.6166 68.3851C61.5554 68.3101 61.4963 68.2345 61.434 68.1625C60.5783 67.1745 59.6049 66.4549 58.2924 65.7132C58.9597 67.4111 59.3645 68.8607 59.5433 70.1849C58.4582 71.0572 57.3224 71.8689 56.14 72.6136C55.8489 72.0564 55.4987 71.4719 55.0785 70.8373C55.0756 71.7383 55.0348 72.5646 54.9623 73.3246C49.6296 76.4074 43.44 78.1731 36.8373 78.1732C36.6589 78.1732 36.4809 78.1709 36.3031 78.1683C35.9676 77.8355 35.6664 77.5064 35.3969 77.1781C33.351 74.6853 33.1033 72.2748 33.0629 69.222C32.212 70.1529 31.6843 71.1031 31.4017 72.4281C31.125 73.7259 31.0825 75.3841 31.1996 77.7357C31.111 77.7219 31.0223 77.7092 30.934 77.6947C29.2277 74.8255 28.4968 72.0063 28.639 69.3607C28.7867 66.617 29.8703 64.0632 31.7631 61.8402C30.9527 61.6073 30.0801 61.7092 28.9144 62.1703C27.7253 62.6408 26.235 63.4824 24.2006 64.7132L24.1263 64.7582L24.1527 64.6761C24.9393 62.2604 25.8919 60.4982 27.4076 58.9457C28.891 57.4264 30.9133 56.109 33.8431 54.5746C33.7538 54.5912 33.6369 54.6131 33.4955 54.638C33.136 54.7015 32.6147 54.7887 31.973 54.8832C30.6897 55.0722 28.9188 55.2911 26.9691 55.4105C25.0193 55.5299 22.8889 55.5502 20.8881 55.3412C18.8878 55.1321 17.0136 54.6932 15.5765 53.8949L15.5082 53.8578L15.5834 53.8363C16.5478 53.5693 17.2605 53.0951 18.0111 52.5267C18.7464 51.9699 19.5202 51.3224 20.601 50.6966C19.533 50.408 18.7516 50.5613 17.5052 50.7171C16.2306 50.8765 14.4776 51.0355 11.4525 50.7171L11.4017 50.7113L11.4281 50.6683C13.7222 46.8916 15.9553 44.4135 18.889 42.6849C21.8223 40.9568 25.4541 39.9791 30.5424 39.1986L30.5482 39.1976C38.821 39.5401 42.7507 39.381 47.3998 37.9271C55.9481 34.15 59.9774 32.7261 64.5863 32.516Z" fill="#F4F9B3"/>
<path d="M15.2938 6.74851C20.7322 11.1387 23.5589 13.7584 27.0741 19.484L27.1337 19.5803C27.726 20.5792 27.4729 21.664 26.6881 22.4298C25.8787 23.2195 24.5043 23.6707 22.9045 23.3508L22.8989 23.3502L22.8946 23.3471C20.6967 22.06 19.2634 20.6424 18.2192 18.6599C17.1889 16.7037 16.5383 14.1989 15.9035 10.731C14.8321 14.4917 14.2863 17.4443 14.4368 20.41C14.5796 23.2222 15.3487 26.0487 16.8929 29.5893L17.2124 30.3071L17.2142 30.3115L17.2148 30.3164C17.2742 30.8602 17.1859 31.2078 16.8724 31.4071C16.7178 31.5052 16.5109 31.5657 16.2478 31.5986C15.9845 31.6314 15.6613 31.6369 15.2727 31.6247H15.2615L15.2528 31.6166C12.0612 28.7442 10.8799 24.3345 11.0858 19.7431C11.2916 15.1515 12.8846 10.3729 15.2472 6.75597L15.2665 6.72676L15.2938 6.74851Z" fill="white"/>
<path d="M43.9412 2.94192C46.2379 8.1259 47.2336 11.2042 48.1965 16.1994C45.6321 15.4556 43.0862 15.2331 39.7735 15.3443C39.8935 13.0654 40.1818 11.2295 40.7635 9.40971C41.3998 7.41894 42.3865 5.44853 43.8846 2.93881L43.9163 2.88599L43.9412 2.94192Z" fill="white"/>
<path d="M55.6849 50.0485C57.382 45.2755 59.5033 44.6391 61.4125 42.0935C55.3667 46.8665 47.0935 47.1847 40.4113 44.0027C39.0218 43.3784 39.4179 42.9157 40.0931 42.0935C38.9816 42.3126 37.8967 43.2282 37.8657 44.9573C38.6225 44.1692 38.984 43.9784 39.4567 44.3209L42.3205 47.8211C45.8107 52.1728 47.7146 53.8317 50.9119 53.8669C53.3529 53.6988 54.4121 52.9123 55.6849 50.0485Z" fill="#012540"/>
<path d="M50.2756 51.9577C48.0482 51.9578 46.7361 50.4669 44.8662 48.4575C47.1845 47.6922 48.4163 47.721 50.2756 50.0485C50.0608 49.3376 49.9205 49.066 49.6392 48.7757C49.2071 48.2594 49.9574 47.8212 50.5938 47.8212C51.2302 47.8212 53.4576 48.7758 53.1394 50.6849C52.503 52.276 50.2756 51.9577 50.2756 51.9577Z" fill="#EE6C02"/>
<path d="M41.366 33.5022C35.9566 32.2294 29.9108 36.0478 29.9108 36.0478C31.6682 33.0411 32.7684 31.9245 35.002 31.2748C37.9595 30.7271 39.5949 31.2329 41.366 33.5022Z" fill="#012642"/>
<path d="M57.276 29.0474C53.9589 29.0545 52.3712 29.5701 49.9574 31.2748C50.2756 29.3656 50.912 28.0928 52.8212 27.4564C54.4122 27.1382 55.7707 27.5715 57.276 29.0474Z" fill="#012642"/>
<path d="M58.867 33.8204C58.5488 32.8658 59.6782 32.1733 62.3672 31.2748C66.1856 30.3202 66.5038 31.2748 66.5038 31.2748C66.5038 31.2748 67.1402 32.242 65.8674 33.8204C64.8154 35.1248 63.7254 35.8911 61.7308 35.7296C60.5736 35.3904 59.1852 34.775 58.867 33.8204Z" fill="#012642"/>
<path d="M30.5472 18.2286C39.0097 16.2047 43.6009 16.4027 51.5484 18.865C54.0242 19.9367 55.1957 20.7344 56.0032 23.3198C57.1516 27.2729 58.3902 28.7908 62.6854 29.0474H66.822C68.3572 29.1081 68.7312 29.6838 68.7312 31.593C68.7311 31.605 68.7312 32.2294 68.7312 33.184L68.0563 32.5793L68.0637 32.5414V32.5389C68.2214 31.9605 68.2359 31.1287 67.7747 30.506C67.3152 29.8857 66.3749 29.4618 64.599 29.7155C62.3682 30.0341 60.6105 29.8753 59.1305 29.0753C57.6507 28.2754 56.4533 26.8371 55.3382 24.6069C54.2257 22.3817 53.2749 21.1953 51.8517 20.4442C50.4255 19.6915 48.5224 19.3743 45.4976 18.8967C40.666 18.1338 34.3694 18.7908 31.825 19.2149L31.8119 19.2167L31.8008 19.2087L30.528 18.2541L30.5143 18.2435L30.5155 18.2267L30.5168 18.1981C30.5269 18.2083 30.5371 18.2184 30.5472 18.2286Z" fill="#FAAB65"/>
</svg>
